<svg width="70" height="19" viewBox="0 0 70 19" fill="none" xmlns="http://www.w3.org/2000/svg">
<path d="M0.805 8.69C0.805 13.212 4.377 16.841 8.88 16.841C13.383 16.841 16.955 13.212 16.955 8.69C16.955 4.187 13.383 0.576999 8.88 0.576999C4.377 0.576999 0.805 4.187 0.805 8.69ZM1.926 8.69C1.926 4.795 4.928 1.546 8.88 1.546C12.813 1.546 15.815 4.795 15.815 8.69C15.815 12.604 12.813 15.853 8.88 15.853C4.947 15.853 1.926 12.623 1.926 8.69ZM8.937 13.212C10.267 13.212 11.445 12.471 11.977 11.806L11.54 11.046C11.046 11.54 10.324 11.882 9.488 11.882C7.664 11.882 6.429 10.533 6.429 8.462C6.429 6.486 7.36 5.213 8.918 5.213C9.849 5.213 10.229 5.365 10.476 5.555L10.856 6.771H11.863V4.681C11.502 4.32 10.305 4.111 9.488 4.111C6.771 4.111 4.795 6.163 4.795 8.766C4.795 11.35 6.182 13.212 8.937 13.212ZM24.1625 17.202L24.4475 18H33.5105L34.0045 14.998L33.0355 14.808L32.3705 16.442L26.4805 16.879C29.7675 14.96 32.8075 12.129 32.8075 9.45C32.8075 7.683 31.5725 5.992 28.7795 5.992C26.7085 5.992 24.9795 7.189 24.2385 8.044L24.8465 8.899C25.4545 8.329 26.4995 7.417 28.1525 7.417C29.7295 7.417 30.5655 8.329 30.5655 9.697C30.5655 12.205 27.5825 15.264 24.1625 17.202ZM40.61 18.171C43.46 18.19 45.645 15.739 45.683 12.015C45.702 8.557 44.429 6.011 40.933 6.011C38.178 6.011 35.822 8.234 35.803 12.015C35.765 15.359 37.171 18.171 40.61 18.171ZM40.724 17.202C38.653 17.202 37.912 14.846 37.912 11.882C37.912 8.842 38.786 6.999 40.781 6.999C42.89 6.999 43.555 9.051 43.555 12.129C43.555 15.264 42.738 17.202 40.724 17.202ZM47.727 17.202L48.012 18H57.075L57.569 14.998L56.6 14.808L55.935 16.442L50.045 16.879C53.332 14.96 56.372 12.129 56.372 9.45C56.372 7.683 55.137 5.992 52.344 5.992C50.273 5.992 48.544 7.189 47.803 8.044L48.411 8.899C49.019 8.329 50.064 7.417 51.717 7.417C53.294 7.417 54.13 8.329 54.13 9.697C54.13 12.205 51.147 15.264 47.727 17.202ZM64.1745 18.171C67.0245 18.19 69.2095 15.739 69.2475 12.015C69.2665 8.557 67.9935 6.011 64.4975 6.011C61.7425 6.011 59.3865 8.234 59.3675 12.015C59.3295 15.359 60.7355 18.171 64.1745 18.171ZM64.2885 17.202C62.2175 17.202 61.4765 14.846 61.4765 11.882C61.4765 8.842 62.3505 6.999 64.3455 6.999C66.4545 6.999 67.1195 9.051 67.1195 12.129C67.1195 15.264 66.3025 17.202 64.2885 17.202Z" fill="black"/>
</svg>
